<svg xmlns="http://www.w3.org/2000/svg" xmlns:xlink="http://www.w3.org/1999/xlink" width="100" height="48" viewBox="0 0 100 48">
    <defs>
        <path id="1h9qowbwka" d="M0.001 0L98.265 0 98.265 47.647 0.001 47.647z"/>
    </defs>
    <g fill="none" fill-rule="evenodd">
        <g>
            <g>
                <g>
                    <g>
                        <g transform="translate(-770.000000, -1296.000000) translate(-13.000000, 809.000000) translate(1.000000, 0.000000) translate(747.000000, 463.000000) translate(35.800000, 24.000000)">
                            <mask id="flpu5i2d4b" fill="#fff">
                                <use xlink:href="#1h9qowbwka"/>
                            </mask>
                            <path fill="#5E4A1B" d="M38.378 32.948c-.556.028-1.055-.127-1.556-.303-.534-.186-1.068-.392-1.62-.503-.738-.148-1.46.021-2.141.33-.622.28-1.258.537-1.948.474-.53-.047-1.058-.184-1.575-.317-.566-.145-1.112-.38-1.682-.493-.668-.135-1.328.02-1.95.284-.633.27-1.262.522-1.965.539-.736.02-1.411-.182-2.065-.482-.987-.452-1.994-.5-3.017-.15-.41.141-.802.336-1.212.465-.901.285-1.786.189-2.663-.143-.53-.202-1.07-.392-1.618-.507-.73-.148-1.442.02-2.116.318-.624.275-1.25.511-1.977.494v-2.931c.897.045 1.654-.401 2.465-.665.937-.309 1.866-.238 2.766.155.569.246 1.14.465 1.77.5.629.036 1.236-.042 1.81-.296.758-.338 1.527-.634 2.37-.524.453.06.915.161 1.336.334.786.325 1.58.601 2.438.466.46-.074.934-.182 1.357-.375 1.257-.578 2.487-.585 3.74 0 1.177.553 2.374.557 3.551.003 1.252-.588 2.48-.575 3.742-.01.466.209.997.271 1.497.397.084.02.17.029.263.043v2.897zM23.259 22.545c-.811-1.233-1.602-2.484-2.442-3.7-.884-1.277-.005-2.42 1.103-2.588l3.95-.6c1.697-.261 3.394-.529 5.092-.783.553-.082 1.11-.18 1.666-.189.625-.012 1.174.252 1.56.76.649.852.283 1.981-.802 2.387-.463.173-.972.239-1.465.317-1.715.274-3.432.531-5.148.795-.247.039-.493.073-.8.121l5.845 8.884c-.652.181-1.282.266-1.912.149-.66-.125-1.303-.331-1.957-.492-.924-.232-1.831-.159-2.745.104-.604.174-1.227.334-1.852.413-.758.096-1.494-.102-2.21-.356-1.153-.408-2.312-.418-3.46.004-1.326.485-2.64.496-3.957-.022-.16-.064-.331-.102-.57-.174 3.449-1.598 6.847-3.17 10.277-4.758l-.173-.272zm14.551 1.418c-.002 1.838-1.56 3.36-3.43 3.357-1.948-.005-3.417-1.453-3.414-3.372.002-1.849 1.543-3.355 3.426-3.353 1.876.004 3.424 1.528 3.418 3.368zM23.826 0C10.668.001 0 10.665 0 23.823s10.667 23.824 23.825 23.824 23.823-10.666 23.823-23.824C47.65 10.665 36.984.001 23.826.001zm64.957 24.098c-.133.236-.235.498-.41.701-.279.324-.674.426-1.094.431-.602.006-1.207.001-1.81.001h-.267c-.007.112-.017.2-.017.29v2.45c0 .69-.275 1.229-.894 1.556-.402.213-.833.239-1.263.09l-.29-.1c0 .352.014.66-.003.97-.031.592-.486 1.164-1.066 1.363-.618.215-1.337.04-1.746-.417-.301-.34-.451-.729-.45-1.19.007-1.565.003-3.127.003-4.693v-.298c-.094-.006-.173-.017-.255-.017-3.329 0-6.656.001-9.985-.007-.209 0-.25.068-.25.264.006 1.586.006 3.175.002 4.762-.003.849-.512 1.49-1.296 1.655-.969.203-1.886-.471-1.962-1.453-.023-.302-.003-.607-.003-.863-.362.034-.685.11-1.003.087-.757-.053-1.379-.672-1.412-1.434-.04-.916-.027-1.83-.022-2.746.001-.21-.053-.276-.268-.274-.54.014-1.084.022-1.623-.015-.637-.046-1.045-.413-1.246-1.017-.012-.034-.035-.066-.053-.096v-.55c.14-.24.249-.51.426-.718.274-.317.668-.412 1.077-.419.48-.006.96-.01 1.442.005.197.005.245-.065.243-.25-.006-.832-.002-1.665-.003-2.496 0-.673.26-1.2.86-1.532.406-.224.837-.262 1.28-.116.084.028.169.058.3.104 0-.328-.017-.624.002-.918.052-.736.573-1.324 1.287-1.472.958-.2 1.862.456 1.963 1.431.013.137.01.274.01.412.003 1.526.005 3.051-.002 4.579-.001.203.054.258.256.258 3.327-.007 6.657-.005 9.984-.006.074 0 .147-.006.25-.012v-.283c0-1.573.01-3.145-.004-4.717-.009-.845.595-1.524 1.298-1.662 1.056-.208 1.925.556 1.97 1.47.014.286.002.574.002.907.11-.031.18-.045.245-.07 1.039-.37 2.121.307 2.176 1.404.046.876.018 1.756.023 2.633v.32c.103.004.183.01.264.01l1.74.001c.823 0 1.261.309 1.554 1.083.007.02.025.037.04.054v.55zM74.44 0C61.284 0 50.618 10.668 50.618 23.824c0 13.158 10.666 23.824 23.822 23.824 13.158 0 23.825-10.666 23.825-23.824C98.265 10.667 87.598 0 74.44 0z" mask="url(#flpu5i2d4b)"/>
                        </g>
                    </g>
                </g>
            </g>
        </g>
    </g>
</svg>
