<svg xmlns="http://www.w3.org/2000/svg" xmlns:xlink="http://www.w3.org/1999/xlink" width="98" height="48" viewBox="0 0 98 48">
    <defs>
        <path id="ogn3go59ga" d="M0 0L97.734 0 97.734 47.774 0 47.774z"/>
    </defs>
    <g fill="none" fill-rule="evenodd">
        <g>
            <g>
                <g>
                    <g>
                        <g transform="translate(-971.000000, -1296.000000) translate(-13.000000, 809.000000) translate(1.000000, 0.000000) translate(947.000000, 463.000000) translate(36.000000, 24.000000)">
                            <mask id="pfx7ik2a1b" fill="#fff">
                                <use xlink:href="#ogn3go59ga"/>
                            </mask>
                            <path fill="#5E4A1B" d="M21.107 26.847h-.575c-.62 0-1.08.422-1.027.932l.664 6.29c.04.383.499.687 1.022.687h.486c.527 0 .942-.306.914-.686l-.308-6.29c-.02-.51-.548-.933-1.176-.933zm5.98 0h-.574c-.626 0-1.136.422-1.145.932l-.079 6.29c-.007.383.416.687.942.687h.486c.526 0 .976-.304 1.003-.686l.431-6.29c.038-.51-.437-.933-1.064-.933zm-2.1-10.336c-.366.189-.774.31-1.217.31-.413 0-.792-.102-1.143-.274L16.85 22.33h13.952l-5.814-5.819zm-8.565 11.27c-.087-.513-.663-.934-1.289-.934h-.57c-.627 0-1.038.421-.922.933l1.407 6.288c.084.383.583.688 1.105.688h.486c.526 0 .9-.307.836-.688l-1.053-6.288zm16.642-.934h-.574c-.625 0-1.189.422-1.255.932l-.826 6.29c-.051.383.335.687.86.687h.487c.524 0 1.013-.304 1.085-.686l1.18-6.29c.095-.51-.33-.933-.957-.933zm5.634-2.344c0 .507-.41.911-.916.911h-.697l-1.94 10.18c0 .43-.348.78-.78.78H13.282c-.429 0-.779-.348-.779-.78l-1.94-10.18h-.699c-.504 0-.915-.41-.915-.91v-1.262c0-.506.411-.913.915-.913h3.581l7.72-7.722c-.02-.142-.04-.283-.04-.435 0-1.461 1.183-2.648 2.647-2.648 1.462 0 2.652 1.187 2.652 2.648 0 .114-.023.225-.037.336l7.82 7.82h3.579c.507 0 .919.406.912.918v1.257zM23.824.126C10.666.126 0 10.793 0 23.95c0 13.16 10.666 23.824 23.824 23.824 13.159 0 23.826-10.665 23.826-23.824C47.65 10.793 36.983.126 23.824.126zM85.645 15.39c-.105 1.746-.464 3.988-1.215 5.576-.682 1.435-1.678 2.539-3.306 2.924-.135.031-.31.272-.312.418-.022 2.023-.022 4.047-.011 6.07.004.489.26.692.78.777.908.152 1.818.387 2.683.704.315.113.695.56.697.857.004.293-.374.73-.686.858-.748.312-1.542.568-2.342.684-1.668.238-3.341.17-4.973-.304-.363-.105-.726-.253-1.044-.452-.762-.474-.779-1.097-.015-1.55.45-.268.971-.436 1.48-.579.473-.13.97-.201 1.462-.231.484-.028.709-.304.714-.716.02-2.058.014-4.122-.003-6.184-.001-.12-.15-.326-.261-.35-1.985-.43-2.97-1.874-3.662-3.604-.628-1.569-.838-3.23-.96-4.904-.04-.543.196-.985.682-1.142 1.04-.336 8.126-.53 9.406-.203 1.062.269.922.755.886 1.351zM72.157 33.11c0 .787-.186 1.065-.766 1.215-.99.255-1.563-.174-1.566-1.2-.008-2.385-.015-4.769.003-7.153.007-.972-.077-1.91-.351-2.863-.555-1.924-.608-3.907-.352-5.885.127-1.012.348-2.017.614-3 .09-.32.406-.684.712-.82.985-.433 1.7.076 1.704 1.166.01 3.108.004 6.216.004 9.327 0 3.072.003 6.142-.002 9.214zm-5.955-13.272c-.006.277-.209.651-.437.793-.346.215-.38.465-.38.8.006 3.857.006 7.713.002 11.568 0 1.008-.32 1.375-1.172 1.39-.748.01-1.132-.35-1.162-1.102-.005-.151-.001-.306-.001-.457 0-3.78-.003-7.558.003-11.34.002-.352-.04-.599-.387-.85-.273-.2-.479-.667-.486-1.018-.048-1.89-.02-3.782-.027-5.672 0-.457.221-.666.665-.66.462.008.549.287.544.688-.017 1.242-.007 2.482-.005 3.722.001.18.02.358.03.537.065 0 .128 0 .193.002.012-.176.035-.354.035-.531.004-1.24.016-2.482-.006-3.723-.008-.452.151-.691.612-.695.47 0 .622.262.617.7-.011 1.222-.004 2.442-.003 3.665 0 .176.02.353.028.527.053 0 .106 0 .157-.003v-.582c0-1.203.006-2.405-.001-3.608-.004-.437.163-.699.625-.697.35 0 .581.124.58.535-.007 2.003.013 4.007-.024 6.01zM73.912 0C60.755 0 50.089 10.667 50.089 23.822c0 13.158 10.666 23.826 23.823 23.826 13.159 0 23.822-10.668 23.822-23.826C97.734 10.667 87.071 0 73.912 0z" mask="url(#pfx7ik2a1b)"/>
                        </g>
                    </g>
                </g>
            </g>
        </g>
    </g>
</svg>
