<svg xmlns="http://www.w3.org/2000/svg" xmlns:xlink="http://www.w3.org/1999/xlink" width="48" height="48" viewBox="0 0 48 48">
    <defs>
        <path id="687wjv1vea" d="M0 0L47.648 0 47.648 47.648 0 47.648z"/>
    </defs>
    <g fill="none" fill-rule="evenodd">
        <g>
            <g>
                <g>
                    <g>
                        <g transform="translate(-996.000000, -1114.000000) translate(-13.000000, 809.000000) translate(1.000000, 0.000000) translate(947.000000, 281.000000) translate(61.000000, 24.000000)">
                            <mask id="x735cmotfb" fill="#fff">
                                <use xlink:href="#687wjv1vea"/>
                            </mask>
                            <path fill="#5E4A1B" d="M29.818 31.987c.197-.537.384-.775.827-.832-.068.44-.314.63-.827.832m-1.458 8.558c-1.995-.386-2.646-1.57-2.016-3.496.281-.853.706-1.63 1.487-2.226-.24.536-.505 1.062-.714 1.61-.344.909-.766 1.902.04 2.72.775.786 1.758.409 2.634.081 1.774-.665 3.277-1.761 4.63-3.067.232-.224.634-.536.204-.848-1.31-.948-1.915-2.428-2.82-3.671-.886-1.212-1.864-2.39-2.356-3.851-.006-.004-.01-.01-.017-.013l.002-.007c-.288.068-.573.135-.86.201.272 1.979.552 3.958.811 5.938.038.3.005.619-.037.924-.016.113-.131.267-.235.302-.203.067-.308-.11-.36-.276-.063-.195-.114-.4-.136-.603-.054-.521-.11-1.044-.162-1.566-.156-1.568-.278-3.136-.216-4.718-.372-.18-.653-.45-.764-.826-.016-.054-.03-.113-.036-.17-.11-.762.223-1.292.988-1.404.78-.114 1.124.395 1.16 1.097.016.364-.096.733-.153 1.1h.006l.009.02c1.305.767 2.107 2.045 3.111 3.115.967 1.027 1.834 2.153 2.7 3.275.383.494.689.499 1.07.059 1.365-1.58 2.578-3.254 3.11-5.316.372-1.451-.594-2.397-2.046-2.003-.65.179-1.264.49-1.938.632.919-.719 1.935-1.224 3.134-1.154 1.003.056 1.552.73 1.744 1.65 1.476 7.167-3.777 14.075-11.974 12.49m7.47-12.115c.211.075.498.195.38.51-.09.243-.341.194-.538.14-1.92-.516-3.749-1.271-5.544-2.16.962-.155 1.805.243 2.669.5 1.023.305 2.029.658 3.033 1.01M8.602 34.614c-1.243-.002-1.517-.28-1.523-1.551-.014-5.111-.014-10.223 0-15.335.006-1.29.287-1.55 1.63-1.553 4.248-.012 8.495-.005 12.744-.005 4.213-.001 8.08-.005 12.293.005 1.508.004 2.067.252 2.076 1.74.013 2.384.029 7.636 0 7.872-.039.325-.26.673-.795.673-.435 0-.854-.378-.856-.673-.016-2.244.01-3.332 0-5.576-.006-1.704-.125-1.832-1.828-1.832-7.736-.004-13.817-.004-21.552 0-1.651 0-1.79.137-1.792 1.763-.006 4.318-.006 6.369.002 10.685 0 1.552.172 1.72 1.738 1.722 5.387.007 9.818-.004 15.204.017.443 0 1.252.19 1.252 1.037 0 .897-.766 1.006-1.291 1.008-5.767.013-11.535.015-17.302.003m16.741 3.522c-.183.576-.676.627-1.174.628-1.414.003-2.828 0-4.24 0-1.412-.001-2.827.008-4.24-.006-.484-.005-1.063-.024-1.072-.684-.01-.647.55-.748 1.042-.73 1.004.031 1.796-.113 1.79-1.39-.003-.431.351-.688.772-.692 2.205-.017 4.41-.021 6.617-.006.588.005.84.388.85.957.014.664-.144 1.3-.345 1.923m-.415-23.491c-.134.404-.385.326-.602.223-1.831-.86-3.653-.852-5.478.02-.181.086-.42.177-.546-.067-.118-.23.084-.374.24-.51 1.201-1.066 4.911-1.084 6.097-.022.12.108.206.252.29.356m-3.283-3.685c-1.739-.078-3.308.359-4.759 1.256-.248.155-.598.443-.818.097-.222-.352.204-.528.441-.696 2.68-1.882 7.624-1.87 10.228.02.216.157.577.326.407.624-.22.38-.557.093-.802-.057-1.453-.89-3.02-1.345-4.697-1.244m-7.154-2c4.115-2.458 8.377-2.77 12.77-.796.565.255 1.107.567 1.648.872.205.115.411.257.467.526-.032.294-.232.33-.442.239-.317-.138-.614-.318-.92-.48-4.451-2.368-8.853-2.282-13.212.258-.27.16-.644.589-.884.212-.256-.41.274-.653.573-.83M23.824 0C10.667 0 0 10.666 0 23.823s10.668 23.825 23.825 23.825c13.158 0 23.824-10.668 23.824-23.825S36.982 0 23.824 0" mask="url(#x735cmotfb)"/>
                        </g>
                    </g>
                </g>
            </g>
        </g>
    </g>
</svg>
