<svg xmlns="http://www.w3.org/2000/svg" xmlns:xlink="http://www.w3.org/1999/xlink" width="48" height="48" viewBox="0 0 48 48">
    <defs>
        <path id="f083m8ax1a" d="M0.001 0L47.648 0 47.648 47.647 0.001 47.647z"/>
    </defs>
    <g fill="none" fill-rule="evenodd">
        <g>
            <g>
                <g>
                    <g>
                        <g transform="translate(-396.000000, -1296.000000) translate(-13.000000, 809.000000) translate(1.000000, 0.000000) translate(347.000000, 463.000000) translate(61.000000, 24.000000)">
                            <mask id="d9xwtvox3b" fill="#fff">
                                <use xlink:href="#f083m8ax1a"/>
                            </mask>
                            <path fill="#5E4A1B" d="M37.994 38.033H9.654v-2.461h21.53c-.304-.22-.547-.515-.71-.899-.207-.487-.32-1.026-.398-1.554-.169-1.175-.282-2.359-.434-3.536-.01-.09-.122-.189-.211-.247-1.74-1.164-3.481-2.324-5.224-3.482-.585-.39-1.13-.825-1.51-1.43-.46-.73-.61-1.523-.297-2.335.632-1.643 1.304-3.271 1.96-4.907l.093-.24c-.43.096-.825.181-1.221.27-.41.091-.819.197-1.234.269-.181.031-.263.122-.329.277-.47 1.079-.938 2.159-1.424 3.23-.208.459-.448.908-.701 1.343-.37.624-1.337.888-2.062.569.3-.814.598-1.63.9-2.444.506-1.37 1.016-2.738 1.511-4.107.083-.228.2-.37.429-.473 1.792-.794 3.573-1.612 5.365-2.407.132-.06.329-.063.463-.01.617.249 1.21.555 1.834.793 1.353.516 1.95 1.766 1.922 3.079-.014.65-.17 1.261-.462 1.836-.486.961-.98 1.915-1.468 2.875-.153.307-.291.618-.457.97.515.504 1.05 1.023 1.58 1.548 1.096 1.092 2.193 2.186 3.28 3.284.088.088.17.228.17.344.008 2.463.003 4.923 0 7.384h5.445v2.461zM13.92 31.055c.259-1.11 1.016-1.676 2.068-1.977 1.167-.333 2.319-.722 3.47-1.1.141-.046.289-.165.364-.291.579-.98 1.142-1.97 1.689-2.927.402.45.771.932 1.21 1.337.44.402.949.727 1.448 1.1-.342.363-.69.736-1.038 1.103-.544.572-1.085 1.146-1.636 1.709-.104.1-.257.181-.398.215-2.289.525-4.583 1.036-6.874 1.566-.17.04-.258.021-.303-.144v-.59zM28.633 8.508c.026-.006.047-.03.07-.048h.653c.524.148 1.013.36 1.364.8.567.72.698 1.512.314 2.343-.367.805-1.021 1.24-1.918 1.297-1.08.068-2.144-.708-2.296-1.927-.15-1.217.6-2.207 1.813-2.465zm7.05 13.023v.297c-.097-.01-.193-.024-.29-.024-1.635 0-3.27.002-4.904.003h-1.086c.037-.101.055-.173.087-.239.152-.307.307-.612.458-.92.364-.731.361-.72 1.171-.644.97.09 1.94.154 2.909.228.841.065 1.404.484 1.656 1.299zM23.825 0C10.668 0 .001 10.665.001 23.823c0 13.157 10.667 23.824 23.823 23.824 13.157 0 23.824-10.667 23.824-23.824C47.648 10.666 36.98 0 23.824 0z" mask="url(#d9xwtvox3b)"/>
                        </g>
                    </g>
                </g>
            </g>
        </g>
    </g>
</svg>
