<svg xmlns="http://www.w3.org/2000/svg" xmlns:xlink="http://www.w3.org/1999/xlink" width="48" height="48" viewBox="0 0 48 48">
    <defs>
        <path id="y6v8k285ma" d="M0 0L47.646 0 47.646 47.647 0 47.647z"/>
    </defs>
    <g fill="none" fill-rule="evenodd">
        <g>
            <g>
                <g>
                    <g>
                        <g transform="translate(-796.000000, -1114.000000) translate(-13.000000, 809.000000) translate(1.000000, 0.000000) translate(747.000000, 281.000000) translate(61.000000, 24.000000)">
                            <mask id="uxfro5t3vb" fill="#fff">
                                <use xlink:href="#y6v8k285ma"/>
                            </mask>
                            <path fill="#5E4A1B" d="M39.755 36.953c-.478-.022-.956-.018-1.433-.008-1.322.03-1.985-1.128-1.985-2.018v-2.369h-1.014c-1.477 0-2.953-.006-4.429.004-.215.001-.327-.07-.433-.253-.812-1.424-1.636-2.837-2.456-4.257-.052-.09-.112-.18-.184-.299l-11.698 6.754c-.912-1.58-1.814-3.14-2.718-4.702l.044-.051 1.528.884c.394.228.792.45 1.176.693.18.115.311.115.498.004 3.256-1.887 6.515-3.768 9.774-5.65 3.27-1.884 6.538-3.77 9.807-5.657.092-.053.188-.102.303-.165l1.24 2.142-6.707 3.876c.56.965 1.098 1.904 1.647 2.837.037.06.138.11.212.11 1.116.008 2.232.005 3.388.005.01-.134.02-.25.02-.363.002-.65-.002-1.3.002-1.954.008-1.226.844-2.064 2.063-2.064h1.659c.007.17.018.309.018.445 0 3.909-.003 7.816.006 11.723 0 .258-.069.343-.328.333m-28.444-1.59l-3.746-6.488c.715-.415 1.415-.818 2.152-1.244l3.745 6.485-2.15 1.247m-.895-11.99c7.13-4.118 14.262-8.234 21.393-12.35 1.097-.636 2.311-.332 2.95.76 1.071 1.837 2.128 3.682 3.193 5.524.028.054.054.116.09.192-.098.064-.183.125-.274.178-7.028 4.057-14.056 8.112-21.08 12.176-.202.118-.346.126-.554.005-2.702-1.587-5.41-3.165-8.119-4.746-.085-.049-.164-.102-.289-.182.929-.538 1.807-1.049 2.69-1.558M23.824 0C10.667 0 0 10.667 0 23.825c0 13.154 10.667 23.822 23.824 23.822 13.157 0 23.822-10.668 23.822-23.822C47.646 10.667 36.981 0 23.824 0" mask="url(#uxfro5t3vb)"/>
                        </g>
                    </g>
                </g>
            </g>
        </g>
    </g>
</svg>
