<svg xmlns="http://www.w3.org/2000/svg" width="48" height="48" viewBox="0 0 48 48">
    <g fill="none" fill-rule="evenodd">
        <g fill="#5E4A1B">
            <g>
                <g>
                    <g>
                        <path d="M85.05 29.391c-5.414-.015-10.262 2.238-13.664 5.866l5.442 5.679c2.374-2.094 4.749-4.187 7.126-6.277.816-.714.987-.7 1.794.009 3.555 3.125 7.11 6.248 10.67 9.365.208.185.461.312.696.465-.073.128-.144.256-.213.387-.783 0-1.564.032-2.344-.01-.654-.037-1.021.206-.898.86.263 1.406-.451 2.07-1.674 2.449-.455.141-.876.393-1.316.593-1.229.564-2.449.537-3.694.011-1.389-.586-2.772-1.212-4.21-1.657l4.314 4.498c1.179.514 2.363.514 3.544-.034 1.467-.678 2.93-1.362 4.4-2.025.328-.147.738-.367 1.035-.285.434.122.982.407 1.143.772.144.326-.045 1.119-.311 1.248-2.26 1.096-4.411 2.499-7.185 3.06l1.934 2.022c.37-.17.78-.365 1.245-.584.898-.426 1.793-.85 2.707-1.233.676-.287 1.33-.009 1.622.633.303.665.061 1.24-.52 1.52-1.082.518-2.158 1.05-3.247 1.548l3.72 3.88c3.937-3.403 6.417-8.44 6.486-14.077-.068-10.328-8.236-18.654-18.601-18.683m5.524 30.077c-1.486.542-3.078.348-4.55-.35-.897-.425-1.793-.847-2.7-1.25-1.17-.52-2.358-.552-3.535-.014-1.495.682-2.981 1.383-4.479 2.058-.33.148-.74.366-1.036.28-.434-.126-.976-.416-1.134-.784-.14-.323.057-1.111.324-1.24 2.608-1.246 5.056-2.938 8.47-3.239.736.228 1.85.453 2.857.914 2.742 1.256 3.623 1.672 5.16 1.215l-2.696-2.814c-.65-.172-1.364-.388-1.98-.763-2.56-1.56-4.978-1.515-7.501.02-.959.587-2.036.99-3.083 1.416-.681.282-1.222.004-1.553-.64-.343-.667-.054-1.243.509-1.513 2.067-.984 4.133-1.993 6.281-2.78 1.024-.376 2.113-.364 3.17-.075l-2.752-2.872c-.645.131-1.281.366-1.9.65-.741.34-1.48.682-2.404 1.11 0-1.038-.048-1.927.013-2.81.06-.84-.197-1.204-1.086-1.118-.718.069-1.447.016-2.172.016l-.09-.213c.176-.19.336-.398.529-.57.777-.683 1.553-1.368 2.328-2.053l-5.278-5.506c-2.425 3.109-3.876 7.018-3.916 11.285-.104 10.42 8.153 18.723 18.433 18.822 4.15.04 7.948-1.244 11.034-3.451l-4.034-4.212c-.408.17-.817.331-1.229.481m-5.678 8.743c-11.284-.056-20.086-8.992-20.084-20.186 0-11.31 8.951-20.058 20.22-20.241 11.334.243 20.158 8.997 20.156 20.233-.002 11.36-8.974 20.25-20.292 20.194M85 24c-13.254 0-24 10.744-24 23.999 0 13.25 10.746 23.997 24 23.997 13.255 0 24-10.746 24-23.997C109 34.744 98.255 24 85 24" transform="translate(-396.000000, -1114.000000) translate(-13.000000, 809.000000) translate(1.000000, 0.000000) translate(347.000000, 281.000000)"/>
                    </g>
                </g>
            </g>
        </g>
    </g>
</svg>
