<svg xmlns="http://www.w3.org/2000/svg" xmlns:xlink="http://www.w3.org/1999/xlink" width="48" height="48" viewBox="0 0 48 48">
    <defs>
        <path id="uihbjozgfa" d="M0 0L47.648 0 47.648 47.647 0 47.647z"/>
    </defs>
    <g fill="none" fill-rule="evenodd">
        <g>
            <g>
                <g>
                    <g>
                        <g transform="translate(-596.000000, -1114.000000) translate(-13.000000, 809.000000) translate(1.000000, 0.000000) translate(547.000000, 281.000000) translate(61.000000, 24.000000)">
                            <mask id="gvakxp453b" fill="#fff">
                                <use xlink:href="#uihbjozgfa"/>
                            </mask>
                            <path fill="#5E4A1B" d="M17.853 28.169c0-.9.033-1.764-.018-2.624-.018-.322-.2-.658-.378-.946-.197-.312-.399-.304-.612.013-.159.231-.335.507-.346.771-.043.918-.017 1.84-.017 2.786h1.37zm3.014-3.618c-.16-.24-.396-.222-.613-.015-.313.293-.503.654-.515 1.074-.02.837-.005 1.675-.005 2.554h1.647c0-.892.048-1.758-.022-2.613-.028-.346-.287-.69-.492-1zm-4.685 5.383c-.222-.08-.504-.106-.73-.047-1.225.32-2.11 1.492-2.111 2.76-.003 1.546 0 3.094 0 4.642v.354h4.83v-4.865c.002-1.359-.7-2.385-1.989-2.844zM30.01 28.17h1.17c0-.955.018-1.888-.015-2.82-.007-.245-.153-.503-.284-.726-.19-.327-.377-.335-.55-.011-.15.287-.272.617-.303.938-.05.534-.017 1.078-.017 1.618l-.001 1zM22.959 26.7v1.471h2.022c0-.872.037-1.701-.017-2.525-.022-.308-.197-.644-.395-.894-.404-.5-.755-.486-1.199-.025-.269.28-.419.609-.413 1.001.005.324.002.65.002.972zm9.338 3.22c-.193-.068-.43-.093-.626-.05-1.232.273-2.193 1.481-2.195 2.73-.003 1.548-.001 3.094-.001 4.643v.401h4.83c0-1.644-.004-3.25 0-4.855.006-1.377-.708-2.413-2.008-2.87zm-6.304 1.514c-.402-.752-1.036-1.247-1.826-1.542-.15-.053-.334-.07-.49-.042-1.194.205-2.268 1.477-2.269 2.675-.005 1.521 0 3.045 0 4.568v.551h4.809c0-1.878.007-3.724-.01-5.57-.002-.216-.107-.443-.214-.64zm2.165-6.012c-.033-.47-.48-1.027-.77-1.043-.276-.013-.697.492-.808.969-.003.024-.01.048-.01.072v2.749h1.622c0-.357.003-.69-.001-1.024-.006-.575.008-1.152-.033-1.723zm8.574 13.643c0 .047-.01.092-.021.16H10.945c-.008-.099-.025-.191-.025-.283 0-2.605.005-5.21-.003-7.816-.002-.363.104-.642.372-.89.526-.493 1.052-.986 1.54-1.515.348-.377.738-.553 1.246-.495.151.017.305.002.482.002V25.36c-.589-.138-.93-.516-.868-1.149.058-.605.472-.88 1.052-.96.184-1.638.653-3.175 1.523-4.574 1.377-2.218 3.285-3.719 5.87-4.296.106-.025.207-.107.292-.181.153-.134.27-.339.446-.407.55-.222.503-.683.534-1.126-2.543-.582-3.224-3.146-2.373-4.78.918-1.756 2.988-2.151 4.148-1.53-1.285.187-1.962.783-2.189 1.929-.192.958.328 2.062 1.207 2.575.938.541 1.874.407 2.831-.415-.08.844-.92 1.596-2.505 2.23l.104.763c.004.023.007.054.023.066.379.317.716.795 1.15.919 3.137.899 5.203 2.932 6.38 5.904.368.926.553 1.926.835 2.936.65.194.947.491.961 1.025.01.525-.27.858-.91 1.065v2.875c.272 0 .554-.04.813.012.257.05.546.135.734.302.624.563 1.22 1.157 1.8 1.765.159.168.3.432.303.653.02 2.701.014 5.403.014 8.104zM23.825 0C10.667 0 0 10.667 0 23.825 0 36.98 10.667 47.647 23.825 47.647S47.649 36.98 47.649 23.825C47.649 10.667 36.983 0 23.825 0z" mask="url(#gvakxp453b)"/>
                        </g>
                    </g>
                </g>
            </g>
        </g>
    </g>
</svg>
