<svg xmlns="http://www.w3.org/2000/svg" xmlns:xlink="http://www.w3.org/1999/xlink" width="48" height="48" viewBox="0 0 48 48">
    <defs>
        <path id="vkdb2seyra" d="M0 0.001L47.648 0.001 47.648 47.646 0 47.646z"/>
    </defs>
    <g fill="none" fill-rule="evenodd">
        <g>
            <g>
                <g>
                    <g>
                        <g transform="translate(-596.000000, -1296.000000) translate(-13.000000, 809.000000) translate(1.000000, 0.000000) translate(547.000000, 463.000000) translate(61.000000, 24.000000)">
                            <mask id="k99ghoy1eb" fill="#fff">
                                <use xlink:href="#vkdb2seyra"/>
                            </mask>
                            <path fill="#5E4A1B" d="M25.91 22.129c0 1.152-.936 2.083-2.085 2.083-1.154 0-2.087-.931-2.087-2.083 0-1.155.933-2.086 2.087-2.086 1.15 0 2.084.931 2.084 2.086zm-8.415-14.75l.973 16.655c.086.056.167.126.224.22l1.37 2.039.865-1.278c.153-.227.409-.342.664-.333h4.496c.258-.01.513.106.668.333l.865 1.278 1.37-2.04c.076-.118.182-.202.3-.26l.97-16.613H17.494zm10.131 21.06h-.002c-.255 0-.493-.127-.637-.337l-.872-1.284v4.119c.278.39.476.804.606 1.236h2.092l.312-5.363-.863 1.288c-.143.212-.379.34-.636.34zm-7.568 0h-.003c-.255 0-.493-.13-.636-.341l-.782-1.167.306 5.242h2.017c.13-.432.327-.844.605-1.236v-4.119l-.871 1.284c-.143.21-.38.336-.636.336zm18.605 9.788L33.843 8.61l-.008-.041v-.043c0-.633-.511-1.146-1.146-1.146h-1.812l-.97 16.586c.05.022.101.046.148.078.352.235.446.713.21 1.067l-.464.693-.374 6.369h1.16v2.103h-3.704c-.103 1.05-.432 2.195-.889 3.444-.115.312-.41.507-.723.507-.088 0-.177-.016-.264-.048-.401-.147-.605-.59-.459-.987.443-1.207.69-2.15.786-2.916h-2.988c.095.766.343 1.71.787 2.916.147.398-.057.84-.457.987-.087.032-.177.048-.266.048-.313 0-.607-.195-.723-.507-.458-1.249-.786-2.394-.889-3.444h-3.734v-2.103h1.263l-.364-6.25-.548-.812c-.235-.354-.141-.832.212-1.067.07-.047.145-.078.218-.098L16.88 7.38h-1.922c-.632 0-1.146.513-1.146 1.146v.043l-.008.04-4.819 29.618h-1.08l4.841-29.748c.025-1.2 1.007-2.165 2.212-2.165h17.732c1.206 0 2.188.965 2.212 2.165l4.842 29.748h-1.08zM23.825 0C10.667 0 0 10.666 0 23.824 0 36.98 10.667 47.647 23.825 47.647S47.648 36.98 47.648 23.824C47.648 10.666 36.983.001 23.825.001z" mask="url(#k99ghoy1eb)"/>
                        </g>
                    </g>
                </g>
            </g>
        </g>
    </g>
</svg>
